<?xml version="1.0" encoding="UTF-8" standalone="no"?>
<!-- Created with Inkscape (http://www.inkscape.org/) -->

<svg
   xmlns:dc="http://purl.org/dc/elements/1.1/"
   xmlns:cc="http://creativecommons.org/ns#"
   xmlns:rdf="http://www.w3.org/1999/02/22-rdf-syntax-ns#"
   xmlns:svg="http://www.w3.org/2000/svg"
   xmlns="http://www.w3.org/2000/svg"
   xmlns:sodipodi="http://sodipodi.sourceforge.net/DTD/sodipodi-0.dtd"
   xmlns:inkscape="http://www.inkscape.org/namespaces/inkscape"
   width="1024"
   height="1024"
   id="svg2"
   version="1.1"
   inkscape:version="0.48.2 r9819"
   sodipodi:docname="chao-bin.svg"
   inkscape:export-filename="E:\百度云同步盘\Resource\vector\chao-bin128.png"
   inkscape:export-xdpi="11.25"
   inkscape:export-ydpi="11.25">
  <defs
     id="defs4" />
  <sodipodi:namedview
     id="base"
     pagecolor="#ffffff"
     bordercolor="#666666"
     borderopacity="1.0"
     inkscape:pageopacity="0.0"
     inkscape:pageshadow="2"
     inkscape:zoom="0.49804687"
     inkscape:cx="512.00001"
     inkscape:cy="512.00001"
     inkscape:document-units="px"
     inkscape:current-layer="layer1"
     showgrid="false"
     inkscape:window-width="1366"
     inkscape:window-height="706"
     inkscape:window-x="-8"
     inkscape:window-y="-8"
     inkscape:window-maximized="1"
     showguides="true"
     inkscape:guide-bbox="true">
    <sodipodi:guide
       orientation="0,1"
       position="775.02746,851.3255"
       id="guide3220" />
    <sodipodi:guide
       orientation="0,1"
       position="-349.36471,152.59608"
       id="guide3233" />
  </sodipodi:namedview>
  <metadata
     id="metadata7">
    <rdf:RDF>
      <cc:Work
         rdf:about="">
        <dc:format>image/svg+xml</dc:format>
        <dc:type
           rdf:resource="http://purl.org/dc/dcmitype/StillImage" />
        <dc:title></dc:title>
      </cc:Work>
    </rdf:RDF>
  </metadata>
  <g
     inkscape:label="Layer 1"
     inkscape:groupmode="layer"
     id="layer1"
     transform="translate(0,-28.362183)">
    <path
       style="fill:#000000;stroke:#000000;stroke-width:3.68514276;stroke-linecap:butt;stroke-linejoin:miter;stroke-miterlimit:4;stroke-opacity:1;stroke-dasharray:none"
       d="m 420.30854,220.57344 c -31.55781,10.97533 -111.22606,41.5612 -69.87893,96.43629 -8.73115,20.82109 -19.0575,52.40634 -28.96037,75.87987 -19.56826,26.1207 -25.64808,20.2534 -10.20027,68.54236 12.8511,40.17185 -64.13015,80.09529 -41.62128,108.04639 11.18855,13.89374 26.06269,4.1474 20.40117,14.191 -3.65834,6.48994 -24.24913,26.32636 2.75018,39.00176 -11.80334,23.24964 9.69064,30.03271 13.54402,27.65102 9.80629,-6.06102 -1.82133,31.55507 5.40183,43.84069 20.63221,35.09267 80.64142,11.8946 87.27388,37.72636 -13.93469,49.08038 40.74316,46.9333 33.06869,84.93918 -28.29245,18.36191 -67.98934,61.21808 -94.64983,81.51069 l 414.35455,1.4799 c -16.59564,-31.51704 -46.92513,-63.88479 -76.35036,-95.54664 -7.22294,-27.32073 3.95116,-97.98262 -25.10073,-78.18183 -23.24603,-22.92329 -3.48402,-83.25907 -3.48402,-83.25907 0,0 44.87726,-59.79471 53.8429,-94.43037 10.48945,-40.52246 41.79064,-124.60136 28.15377,-221.55833 C 723.93547,291.87425 709.1654,247.67506 668.87063,225.04975 638.0645,207.75226 500.9739,192.51931 420.30854,220.57344 z"
       id="path3095"
       inkscape:connector-curvature="0"
       sodipodi:nodetypes="sccssscsscccccccssss" />
  </g>
</svg>
