<?xml version="1.0" encoding="UTF-8" standalone="no"?>
<!-- Created with Inkscape (http://www.inkscape.org/) -->

<svg
   xmlns:dc="http://purl.org/dc/elements/1.1/"
   xmlns:cc="http://creativecommons.org/ns#"
   xmlns:rdf="http://www.w3.org/1999/02/22-rdf-syntax-ns#"
   xmlns:svg="http://www.w3.org/2000/svg"
   xmlns="http://www.w3.org/2000/svg"
   xmlns:sodipodi="http://sodipodi.sourceforge.net/DTD/sodipodi-0.dtd"
   xmlns:inkscape="http://www.inkscape.org/namespaces/inkscape"
   width="1024"
   height="1024"
   id="svg2"
   version="1.1"
   inkscape:version="0.48.5 r10040"
   sodipodi:docname="chen-tian.svg"
   inkscape:export-filename="huiyi-128.png"
   inkscape:export-xdpi="11.25"
   inkscape:export-ydpi="11.25">
  <defs
     id="defs4" />
  <sodipodi:namedview
     id="base"
     pagecolor="#ffffff"
     bordercolor="#666666"
     borderopacity="1.0"
     inkscape:pageopacity="0.0"
     inkscape:pageshadow="2"
     inkscape:zoom="0.5"
     inkscape:cx="573.66131"
     inkscape:cy="562.5631"
     inkscape:document-units="px"
     inkscape:current-layer="layer1"
     showgrid="false"
     showguides="true"
     inkscape:guide-bbox="true"
     inkscape:window-width="1280"
     inkscape:window-height="697"
     inkscape:window-x="0"
     inkscape:window-y="0"
     inkscape:window-maximized="1">
    <sodipodi:guide
       orientation="0,1"
       position="-316.8932,149.12621"
       id="guide3005" />
  </sodipodi:namedview>
  <metadata
     id="metadata7">
    <rdf:RDF>
      <cc:Work
         rdf:about="">
        <dc:format>image/svg+xml</dc:format>
        <dc:type
           rdf:resource="http://purl.org/dc/dcmitype/StillImage" />
        <dc:title></dc:title>
      </cc:Work>
    </rdf:RDF>
  </metadata>
  <g
     inkscape:label="Layer 1"
     inkscape:groupmode="layer"
     id="layer1"
     transform="translate(0,-28.362183)">
    <path
       style="fill:#000000;fill-opacity:1;stroke:#000000;stroke-width:1px;stroke-linecap:butt;stroke-linejoin:miter;stroke-opacity:1"
       d="M 467.66667,789.23597 C 635.381,736.96665 743.8669,644.68906 742.5637,490.46512 741.5175,366.63862 703.5669,226.53187 571.8037,201.90138 475.0282,183.81113 322.70247,220.81901 304.05387,343.79845 c -5.22821,34.47775 34.4608,88.71573 34.4608,88.71573 0,0 7.13642,9.87708 2.97364,17.96329 -12.61878,37.19129 -41.28532,56.42665 -23.42164,75.88471 5.42595,5.91023 17.58922,6.93882 20.6,4.66666 7.8769,-5.9445 -4.17672,16.62324 -1.33334,25.33334 2.69306,8.24961 7.64656,1.86442 10.66667,10 2.35211,6.33613 -4.24071,11.15712 -3.33333,14.66667 0.98333,3.80331 6.7965,1.71284 10.0429,7.03286 3.61205,5.91922 -10.04447,9.4582 -4.87624,14.80047 23.67301,24.4702 -1.68356,42.40136 12.16667,57.83333 15.19251,16.92754 56.37817,0.19883 62,25 16.50097,72.7954 -138.87073,123.64043 -102,217.54046 21.9814,-52.47231 124.14995,-107.29417 145.66667,-114 z"
       id="path3133"
       inkscape:connector-curvature="0"
       sodipodi:nodetypes="ssssccssssssssscs" />
  </g>
</svg>
