<?xml version="1.0" encoding="UTF-8" standalone="no"?>
<!-- Created with Inkscape (http://www.inkscape.org/) -->

<svg
   xmlns:dc="http://purl.org/dc/elements/1.1/"
   xmlns:cc="http://creativecommons.org/ns#"
   xmlns:rdf="http://www.w3.org/1999/02/22-rdf-syntax-ns#"
   xmlns:svg="http://www.w3.org/2000/svg"
   xmlns="http://www.w3.org/2000/svg"
   xmlns:sodipodi="http://sodipodi.sourceforge.net/DTD/sodipodi-0.dtd"
   xmlns:inkscape="http://www.inkscape.org/namespaces/inkscape"
   width="1024"
   height="1024"
   id="svg2"
   version="1.1"
   inkscape:version="0.48.2 r9819"
   sodipodi:docname="hui-yi.svg"
   inkscape:export-filename="E:\百度云同步盘\Resource\vector\li-huiyi128.png"
   inkscape:export-xdpi="11.25"
   inkscape:export-ydpi="11.25">
  <defs
     id="defs4" />
  <sodipodi:namedview
     id="base"
     pagecolor="#ffffff"
     bordercolor="#666666"
     borderopacity="1.0"
     inkscape:pageopacity="0.0"
     inkscape:pageshadow="2"
     inkscape:zoom="0.70434465"
     inkscape:cx="674.08782"
     inkscape:cy="473.90973"
     inkscape:document-units="px"
     inkscape:current-layer="layer1"
     showgrid="false"
     showguides="true"
     inkscape:guide-bbox="true"
     inkscape:window-width="1366"
     inkscape:window-height="706"
     inkscape:window-x="-8"
     inkscape:window-y="-8"
     inkscape:window-maximized="1">
    <sodipodi:guide
       orientation="0,1"
       position="-316.8932,149.12621"
       id="guide3005" />
  </sodipodi:namedview>
  <metadata
     id="metadata7">
    <rdf:RDF>
      <cc:Work
         rdf:about="">
        <dc:format>image/svg+xml</dc:format>
        <dc:type
           rdf:resource="http://purl.org/dc/dcmitype/StillImage" />
        <dc:title></dc:title>
      </cc:Work>
    </rdf:RDF>
  </metadata>
  <g
     inkscape:label="Layer 1"
     inkscape:groupmode="layer"
     id="layer1"
     transform="translate(0,-28.362183)">
    <path
       style="fill:#000000;stroke:#000000;stroke-width:0.98297912px;stroke-linecap:butt;stroke-linejoin:miter;stroke-opacity:1"
       d="m 370.53913,903.23597 c 3.89883,-15.19763 40.44395,-76.221 49.08281,-99.60258 14.94179,-40.44072 1.38407,-27.01327 9.77392,-39.31509 -0.48016,-29.59564 -47.0568,-25.44859 13.81197,-93.44 -17.9658,-9.55207 -20.54874,-6.81428 -64.18054,-14.6103 -24.27423,-4.33726 -26.80559,-30.51067 -25.5318,-37.09081 1.98232,-10.24043 -8.08665,0.88814 -17.9262,-14.70187 -3.87215,-6.13514 3.4161,-16.38409 15.28577,-22.85757 1.76625,-2.50197 -16.43671,0.84271 -24.22701,-8.7683 -7.14225,-8.81149 6.74679,-16.8569 3.8012,-25.01794 -0.86577,-6.10998 -10.09005,3.27241 -24.63198,-13.46501 -10.60606,-12.20735 16.81607,-48.19073 25.2162,-63.39988 7.89895,-14.30176 9.27784,-72.20498 2.98269,-57.54558 -5.4256,12.63448 -1.07542,34.69961 -2.10275,29.24917 -12.08576,-27.31393 -11.48336,-71.08253 -3.22647,-94.67789 24.84339,-66.35129 67.07861,-95.94507 87.10132,-110.36936 68.30465,-49.20638 117.99295,-34.9245 189.46122,-24.50389 57.69413,16.12581 108.43824,76.26519 122.10414,128.04441 18.89643,64.77433 -18.65664,237.59144 -84.10596,288.8565 -2.67631,22.70756 20.34811,7.57395 21.14049,22.88213 4.56286,18.00884 14.79657,41.14432 6.96395,62.15961 10.67332,24.48577 91.80828,136.56564 109.09764,188.17681 z"
       id="path3191"
       inkscape:connector-curvature="0"
       sodipodi:nodetypes="csccssscscsssccsccccccc" />
  </g>
</svg>
