<?xml version="1.0" encoding="UTF-8" standalone="no"?>
<!-- Created with Inkscape (http://www.inkscape.org/) -->

<svg
   xmlns:dc="http://purl.org/dc/elements/1.1/"
   xmlns:cc="http://creativecommons.org/ns#"
   xmlns:rdf="http://www.w3.org/1999/02/22-rdf-syntax-ns#"
   xmlns:svg="http://www.w3.org/2000/svg"
   xmlns="http://www.w3.org/2000/svg"
   xmlns:sodipodi="http://sodipodi.sourceforge.net/DTD/sodipodi-0.dtd"
   xmlns:inkscape="http://www.inkscape.org/namespaces/inkscape"
   width="1024"
   height="1024"
   id="svg2"
   version="1.1"
   inkscape:version="0.48.2 r9819"
   sodipodi:docname="jia-wei.svg"
   inkscape:export-filename="E:\百度云同步盘\Resource\vector\jia-wei128.png"
   inkscape:export-xdpi="11.25"
   inkscape:export-ydpi="11.25">
  <defs
     id="defs4" />
  <sodipodi:namedview
     id="base"
     pagecolor="#ffffff"
     bordercolor="#666666"
     borderopacity="1.0"
     inkscape:pageopacity="0.0"
     inkscape:pageshadow="2"
     inkscape:zoom="0.3959798"
     inkscape:cx="248.15326"
     inkscape:cy="497.03273"
     inkscape:document-units="px"
     inkscape:current-layer="layer1"
     showgrid="false"
     inkscape:window-width="1280"
     inkscape:window-height="689"
     inkscape:window-x="0"
     inkscape:window-y="0"
     inkscape:window-maximized="1"
     showguides="true"
     inkscape:guide-bbox="true"
     objecttolerance="1"
     guidetolerance="1">
    <sodipodi:guide
       orientation="0,1"
       position="146.57255,849.31765"
       id="guide3259" />
    <sodipodi:guide
       orientation="0,1"
       position="-146.57255,146.57255"
       id="guide3261" />
  </sodipodi:namedview>
  <metadata
     id="metadata7">
    <rdf:RDF>
      <cc:Work
         rdf:about="">
        <dc:format>image/svg+xml</dc:format>
        <dc:type
           rdf:resource="http://purl.org/dc/dcmitype/StillImage" />
        <dc:title></dc:title>
      </cc:Work>
    </rdf:RDF>
  </metadata>
  <g
     inkscape:label="Layer 1"
     inkscape:groupmode="layer"
     id="layer1"
     transform="translate(0,-28.362183)">
    <path
       style="fill:#000000;fill-opacity:1;stroke:none"
       d="m 431.92834,234.10979 c -29.45517,15.02691 -58.41268,26.77977 -69.19543,58.03912 -5.89666,17.09454 -0.76165,22.90364 -4.63714,40.56644 -7.97889,36.3643 -56.24144,82.11758 -48.29934,102.73899 4.88404,12.68125 9.44275,20.21365 11.07875,30.11765 2.89627,17.53347 -53.11035,58.64397 -45.24632,84.68296 4.08183,13.51557 25.06376,5.47777 31.19142,18.1972 4.68383,9.72241 -8.65493,31.67145 -3.51568,41.16101 3.55934,6.57227 17.43146,1.39213 12.50852,8.43247 -2.96108,4.23466 -10.44599,7.71179 -5.43794,15.60675 5.78071,9.11302 15.61706,5.89 14.51569,16.62549 -1.68983,16.47146 -2.14108,34.28246 13.51569,44.18039 48.18195,30.45976 71.65581,21.55792 88.88431,36.14902 10.77381,9.12452 1.23511,22.88359 9.01568,34.66471 7.25153,10.98006 45.40132,53.08024 33.18039,65.22745 -13.24949,13.16958 -12.13578,39.74386 -12.58627,42.04706 -3.27021,16.71954 -15.39793,20.59585 -23.15686,32.74313 l 336.84902,0.5 C 768.3773,875.35776 747.95078,842.69462 718.96734,824.98375 708.8656,818.81089 688.42768,791.99772 672.70067,745.06022 663.75616,718.36519 650.20554,646.10744 662.18499,632.23081 685.59097,605.11803 745.21338,465.54089 742.03008,381.25042 740.3962,337.98698 718.022,302.49754 685.28695,267.78768 647.21347,227.41734 615.04043,213.66597 556.55493,207.04453 c -33.91666,-3.83988 -94.2214,11.55369 -124.62659,27.06526 z"
       id="path3069"
       inkscape:connector-curvature="0"
       sodipodi:nodetypes="ssssssssssssssssccsssssss" />
  </g>
</svg>
