<?xml version="1.0" encoding="UTF-8" standalone="no"?>
<!-- Created with Inkscape (http://www.inkscape.org/) -->

<svg
   xmlns:dc="http://purl.org/dc/elements/1.1/"
   xmlns:cc="http://creativecommons.org/ns#"
   xmlns:rdf="http://www.w3.org/1999/02/22-rdf-syntax-ns#"
   xmlns:svg="http://www.w3.org/2000/svg"
   xmlns="http://www.w3.org/2000/svg"
   xmlns:sodipodi="http://sodipodi.sourceforge.net/DTD/sodipodi-0.dtd"
   xmlns:inkscape="http://www.inkscape.org/namespaces/inkscape"
   width="1024"
   height="1024"
   id="svg2"
   version="1.1"
   inkscape:version="0.48.2 r9819"
   sodipodi:docname="li-yao.svg"
   inkscape:export-filename="E:\百度云同步盘\Resource\vector\li-yao128.png"
   inkscape:export-xdpi="11.25"
   inkscape:export-ydpi="11.25">
  <defs
     id="defs4" />
  <sodipodi:namedview
     id="base"
     pagecolor="#ffffff"
     bordercolor="#666666"
     borderopacity="1.0"
     inkscape:pageopacity="0.0"
     inkscape:pageshadow="2"
     inkscape:zoom="0.49804688"
     inkscape:cx="512"
     inkscape:cy="512"
     inkscape:document-units="px"
     inkscape:current-layer="layer1"
     showgrid="false"
     inkscape:window-width="1366"
     inkscape:window-height="706"
     inkscape:window-x="-8"
     inkscape:window-y="-8"
     inkscape:window-maximized="1"
     showguides="true"
     inkscape:guide-bbox="true">
    <sodipodi:guide
       orientation="0,1"
       position="146.57255,849.31765"
       id="guide3259" />
    <sodipodi:guide
       orientation="0,1"
       position="-146.57255,146.57255"
       id="guide3261" />
  </sodipodi:namedview>
  <metadata
     id="metadata7">
    <rdf:RDF>
      <cc:Work
         rdf:about="">
        <dc:format>image/svg+xml</dc:format>
        <dc:type
           rdf:resource="http://purl.org/dc/dcmitype/StillImage" />
        <dc:title></dc:title>
      </cc:Work>
    </rdf:RDF>
  </metadata>
  <g
     inkscape:label="Layer 1"
     inkscape:groupmode="layer"
     id="layer1"
     transform="translate(0,-28.362183)">
    <path
       style="fill:#000000;stroke:none"
       d="m 347.99533,322.17912 c -8.10039,15.74852 -38.58116,62.11249 -49.26023,86.18779 -4.53126,10.21548 -5.67409,4.39213 -9.80082,9.07131 -3.70628,4.20241 0.79117,9.21431 4.21939,13.13082 3.42823,3.91652 5.95131,7.38803 2.65826,12.74302 -0.9204,1.49677 -2.8572,2.46199 -4.64445,1.82927 -2.66791,-0.94452 -10.20817,-6.84584 -11.7402,-2.90515 -7.37789,18.97753 -3.07064,52.12086 3.42811,44.88869 5.22936,-5.81952 2.40436,2.12918 1.45488,2.96854 -23.5649,20.83171 -31.48508,38.4476 -24.79887,52.39034 6.87072,14.32743 25.27683,10.97567 26.79109,18.67023 1.51312,7.68876 -18.38773,28.53596 -8.40564,36.68227 13.48839,11.00776 12.78544,4.6866 13.97705,12.70291 1.08601,7.30599 -24.02941,3.70796 -17.15963,23.93861 3.07047,9.04211 15.52925,10.3199 15.49507,22.76471 -0.0706,25.72679 5.29746,52.41658 23.95487,62.31064 16.36879,8.68043 63.48724,-2.4538 77.93029,10.21732 23.20796,20.36072 31.18778,29.10101 41.3448,45.29143 -22.54547,33.14921 -60.74849,37.94518 -65.65846,62.9314 -4.00151,20.36318 -2.37898,46.9821 -12.74612,67.79636 91.47921,1.58387 450.05092,-1.99579 448.84022,0.42567 10.58612,3.36879 -54.54694,-84.53127 -78.62709,-114.72875 -31.95463,-40.07239 -21.28598,-37.87301 -43.85208,-93.69455 -4.53357,-11.21469 -8.96223,-2.68575 -29.46273,-12.35587 18.34223,-28.99331 18.85133,-20.57037 25.55779,-35.95456 7.26905,-16.67475 -0.0239,-30.87928 15.55743,-90.61568 11.98718,-45.95701 33.02015,-85.69482 36.89193,-126.85016 3.56748,-37.92072 -0.90276,-51.20749 -7.56725,-77.51459 -9.52725,-37.60741 -24.55179,-71.14217 -51.97649,-97.15288 -24.62047,-23.35106 -20.85928,-30.85177 -102.68998,-52.41752 -24.42664,-6.43743 -83.03575,-4.12805 -122.33543,4.45202 -25.12654,5.48573 -87.11017,20.9912 -110.19299,61.38834 -9.3593,16.37967 9.22624,21.66551 12.81728,51.40802 z"
       id="path6699"
       inkscape:connector-curvature="0"
       sodipodi:nodetypes="csssssssssssssssscsccsscssssssssc" />
  </g>
</svg>
