<?xml version="1.0" encoding="UTF-8" standalone="no"?>
<!-- Created with Inkscape (http://www.inkscape.org/) -->

<svg
   xmlns:dc="http://purl.org/dc/elements/1.1/"
   xmlns:cc="http://creativecommons.org/ns#"
   xmlns:rdf="http://www.w3.org/1999/02/22-rdf-syntax-ns#"
   xmlns:svg="http://www.w3.org/2000/svg"
   xmlns="http://www.w3.org/2000/svg"
   xmlns:sodipodi="http://sodipodi.sourceforge.net/DTD/sodipodi-0.dtd"
   xmlns:inkscape="http://www.inkscape.org/namespaces/inkscape"
   width="1024"
   height="1024"
   id="svg2"
   version="1.1"
   inkscape:version="0.48.2 r9819"
   sodipodi:docname="zhi-peng.svg"
   inkscape:export-filename="E:\百度云同步盘\Resource\vector\zhi-peng128.png"
   inkscape:export-xdpi="11.25"
   inkscape:export-ydpi="11.25">
  <defs
     id="defs4" />
  <sodipodi:namedview
     id="base"
     pagecolor="#ffffff"
     bordercolor="#666666"
     borderopacity="1.0"
     inkscape:pageopacity="0.0"
     inkscape:pageshadow="2"
     inkscape:zoom="0.49804688"
     inkscape:cx="512"
     inkscape:cy="512"
     inkscape:document-units="px"
     inkscape:current-layer="layer1"
     showgrid="false"
     inkscape:window-width="1366"
     inkscape:window-height="706"
     inkscape:window-x="-8"
     inkscape:window-y="-8"
     inkscape:window-maximized="1"
     showguides="true"
     inkscape:guide-bbox="true">
    <sodipodi:guide
       orientation="0,1"
       position="186.72941,853.33333"
       id="guide3402" />
    <sodipodi:guide
       orientation="0,1"
       position="-287.12157,148.58039"
       id="guide3415" />
  </sodipodi:namedview>
  <metadata
     id="metadata7">
    <rdf:RDF>
      <cc:Work
         rdf:about="">
        <dc:format>image/svg+xml</dc:format>
        <dc:type
           rdf:resource="http://purl.org/dc/dcmitype/StillImage" />
        <dc:title></dc:title>
      </cc:Work>
    </rdf:RDF>
  </metadata>
  <g
     inkscape:label="Layer 1"
     inkscape:groupmode="layer"
     id="layer1"
     transform="translate(0,-28.362183)">
    <path
       style="fill:#000000;stroke:none"
       d="m 319.87544,267.94202 c -25.99866,22.99775 -30.39456,21.93483 -44.13018,63.52905 -7.45926,22.58813 7.2999,79.0586 7.2999,79.0586 14.1131,-74.05154 29.81254,-76.58132 37.9,-78.82703 0,0 -50.59908,103.23224 -37.25435,105.14945 10.98416,1.57806 6.78765,24.11971 5.25453,31.61161 -1.3412,6.55401 9.83435,3.17518 8.00526,11.87572 -5.50955,23.29851 -18.52511,35.4917 -31.77727,57.23696 -8.23534,32.42888 20.48571,23.89314 21.79129,40.17473 1.19331,14.88152 -4.32288,25.12969 -1.40621,29.61306 6.07662,9.34069 6.39092,6.2749 8.5524,9.64182 3.71694,5.78991 -2.78011,9.2183 -1.77951,12.36085 4.86862,15.29071 17.87826,11.68013 19.17477,23.93441 0.85667,8.09717 0.0274,19.99563 2.72838,25.29431 3.29851,6.47062 24.93801,23.90806 37.50865,25.38455 12.57064,1.47649 33.2227,1.64914 36.02572,-0.21954 -64.40343,67.72414 -90.75366,108.70835 -112.11659,196.24811 180.36894,5.45217 547.12786,3.29603 541.02383,3.77311 0,0 7.25302,-24.71726 37.99445,-71.29597 10.66325,-22.62956 -32.78638,-27.88994 -44.19226,-46.63965 24.20315,-11.17307 36.41102,-25.07401 29.59368,-31.8792 -4.74747,-4.73901 -81.57627,-32.41795 -83.04248,-67.48139 10.66524,-43.37401 -4.45214,-71.15411 -45.24256,-66.47373 -30.58466,3.26587 -59.71634,-5.67292 -59.71634,-5.67292 0,0 33.56432,-136.41539 46.80276,-187.65106 C 724.38517,323.19262 675.03182,267.88356 595.70939,220.84872 564.06186,202.08309 522.6632,195.85364 486.07024,199.02885 c -49.90338,5.7917 -128.3001,35.39247 -166.1948,68.91317 z"
       id="path4793"
       inkscape:connector-curvature="0"
       sodipodi:nodetypes="ssccssccsssssszcccccsccccscs" />
  </g>
</svg>
